<svg width="857" height="182" viewBox="0 0 857 182" fill="none" xmlns="http://www.w3.org/2000/svg">
<path d="M411.711 68.3001C410.661 68.3001 409.67 68.6501 408.736 69.3501C407.803 70.0501 406.986 70.9835 406.286 72.1501C405.586 73.3168 405.003 74.6585 404.536 76.1751C404.186 77.6918 404.011 79.2084 404.011 80.7251V109.775C399.228 117.242 393.628 122.783 387.211 126.4C383.245 128.733 378.986 130.367 374.436 131.3C369.886 132.233 364.928 132.583 359.561 132.35C350.345 132.117 342.003 130.25 334.536 126.75C327.07 123.133 320.711 118.525 315.461 112.925C310.211 107.208 306.186 100.733 303.387 93.5001C300.587 86.2668 299.187 78.8001 299.187 71.1001C299.187 63.4001 300.645 55.7585 303.562 48.1752C306.595 40.5919 311.261 33.5919 317.561 27.1752C323.511 21.2252 330.045 16.7336 337.161 13.7002C344.395 10.6669 351.861 9.03358 359.561 8.80025C365.628 8.80025 371.461 9.85025 377.061 11.9502C377.645 12.1836 378.17 12.4169 378.636 12.6502C379.103 12.7669 379.57 12.9419 380.036 13.1752C381.786 13.7586 383.828 14.3419 386.161 14.9252C388.495 15.3919 390.77 15.6252 392.986 15.6252C395.32 15.5086 397.42 15.0419 399.286 14.2252C401.27 13.2919 402.67 11.7752 403.486 9.67525H405.061V50.2752H403.486C403.486 44.3252 402.32 39.0169 399.986 34.3502C397.77 29.6835 394.795 25.6585 391.061 22.2752C386.978 18.4252 382.136 15.5086 376.536 13.5252C371.053 11.5419 365.395 10.5503 359.561 10.5503C353.145 10.7836 347.136 12.4752 341.536 15.6252C335.936 18.7752 331.036 22.9752 326.836 28.2252C322.403 33.8252 318.961 40.1835 316.511 47.3002C314.178 54.4168 312.895 61.7085 312.661 69.1751C312.428 76.6418 313.245 83.9918 315.111 91.2251C316.978 98.4584 319.836 104.933 323.686 110.65C327.653 116.367 332.611 121.092 338.561 124.825C344.511 128.442 351.511 130.425 359.561 130.775V131.65L359.736 130.775C364.986 130.892 369.77 130.542 374.086 129.725C378.52 128.792 382.603 127.217 386.336 125C387.27 124.533 388.086 124.067 388.786 123.6C389.486 123.017 390.245 122.433 391.061 121.85V80.7251C391.061 79.2084 390.828 77.6918 390.361 76.1751C390.011 74.6585 389.486 73.3168 388.786 72.1501C388.086 70.9835 387.27 70.0501 386.336 69.3501C385.403 68.6501 384.411 68.3001 383.361 68.3001V66.7251H411.711V68.3001ZM492.82 77.0501V117.825C492.82 119.342 492.995 120.858 493.345 122.375C493.811 123.892 494.395 125.233 495.095 126.4C495.795 127.567 496.611 128.5 497.545 129.2C498.478 129.9 499.469 130.25 500.519 130.25V132H479.87V116.6C477.886 120.8 474.853 124.183 470.77 126.75C468.086 128.617 464.936 130.075 461.32 131.125C457.703 132.175 453.97 132.758 450.12 132.875C446.27 132.992 442.478 132.583 438.745 131.65C435.011 130.717 431.628 129.2 428.595 127.1C425.678 124.883 423.286 122.025 421.42 118.525C419.67 115.025 418.795 110.767 418.795 105.75C418.795 97.9334 420.778 91.6334 424.745 86.8501C428.828 82.0668 434.02 78.5668 440.32 76.3501C439.62 73.6668 439.328 70.9835 439.445 68.3001C439.561 65.6168 440.145 63.0501 441.195 60.6001C442.245 57.9168 443.995 55.5252 446.445 53.4252C448.311 51.7918 450.47 50.4502 452.92 49.4002C455.37 48.3502 458.286 47.5918 461.67 47.1252C462.253 47.0085 462.895 46.9502 463.595 46.9502C464.295 46.9502 464.995 46.9502 465.695 46.9502C472.695 46.9502 478.645 49.1085 483.545 53.4252C488.561 57.6252 491.536 63.5751 492.47 71.2751C492.586 71.9751 492.703 72.9085 492.82 74.0751C492.936 75.2418 492.936 76.2334 492.82 77.0501ZM479.87 112.05V89.4751C476.72 93.3251 471.236 95.2501 463.42 95.2501C458.17 95.2501 453.736 93.9084 450.12 91.2251C446.62 88.5418 443.936 85.2168 442.07 81.2501C438.103 84.9834 435.245 89.6501 433.495 95.2501C431.861 100.85 431.336 106.333 431.92 111.7C432.503 117.067 434.195 121.675 436.995 125.525C439.795 129.258 443.703 131.125 448.72 131.125C451.986 131.125 455.253 130.775 458.52 130.075C461.903 129.375 464.995 128.267 467.795 126.75C470.711 125.117 473.22 123.133 475.32 120.8C477.42 118.35 478.936 115.433 479.87 112.05ZM441.895 75.8251C444.811 74.8918 447.728 74.2501 450.645 73.9001C453.561 73.4335 456.186 73.2001 458.52 73.2001H479.87C479.636 71.2168 479.17 68.8251 478.47 66.0251C477.886 63.1085 476.661 60.3668 474.795 57.8002C472.928 55.3502 470.77 53.6002 468.32 52.5502C465.87 51.3835 463.303 50.7418 460.62 50.6252C451.636 50.3918 445.628 54.0668 442.595 61.6501C440.845 66.0835 440.611 70.8085 441.895 75.8251ZM479.87 74.9501H458.52C455.486 74.9501 452.686 75.4168 450.12 76.3501C447.67 77.1668 445.453 78.3918 443.47 80.0251C445.22 83.8751 447.786 87.1418 451.17 89.8251C454.67 92.3917 458.753 93.6751 463.42 93.6751C466.22 93.6751 468.611 93.4417 470.595 92.9751C472.695 92.3917 474.386 91.6917 475.67 90.8751C477.653 89.5918 479.053 88.0751 479.87 86.3251V74.9501ZM537.725 117.825C537.725 119.342 537.9 120.858 538.25 122.375C538.716 123.892 539.3 125.233 540 126.4C540.7 127.567 541.516 128.5 542.45 129.2C543.383 129.9 544.375 130.25 545.425 130.25V132H517.075V130.25C518.125 130.25 519.116 129.9 520.05 129.2C520.983 128.5 521.8 127.567 522.5 126.4C523.2 125.233 523.725 123.892 524.075 122.375C524.541 120.858 524.775 119.342 524.775 117.825V22.1002C524.775 20.0002 524.308 18.2502 523.375 16.8502C522.558 15.3336 521.45 14.2252 520.05 13.5252C518.65 12.7086 517.075 12.2419 515.325 12.1252C513.575 12.0086 511.766 12.3002 509.9 13.0002H509.725L509.2 11.4253L537.725 0.750264V117.825ZM582.671 117.825C582.671 119.342 582.846 120.858 583.196 122.375C583.663 123.892 584.246 125.233 584.946 126.4C585.646 127.567 586.463 128.5 587.396 129.2C588.329 129.9 589.321 130.25 590.371 130.25V132H562.021V130.25C563.071 130.25 564.063 129.9 564.996 129.2C565.929 128.5 566.746 127.567 567.446 126.4C568.146 125.233 568.671 123.892 569.021 122.375C569.488 120.858 569.721 119.342 569.721 117.825V22.1002C569.721 20.0002 569.254 18.2502 568.321 16.8502C567.504 15.3336 566.396 14.2252 564.996 13.5252C563.596 12.7086 562.021 12.2419 560.271 12.1252C558.521 12.0086 556.713 12.3002 554.846 13.0002H554.671L554.146 11.4253L582.671 0.750264V117.825ZM602.349 59.5501C602.349 56.4002 601.59 53.5418 600.074 50.9752C598.557 48.2918 596.749 46.9502 594.649 46.9502V45.3752H615.299V88.9501C615.299 92.1001 615.415 96.0667 615.649 100.85C615.882 105.633 616.407 110.242 617.224 114.675C618.157 119.108 619.557 122.958 621.424 126.225C623.29 129.375 625.857 130.95 629.124 130.95C632.74 130.95 635.949 130.017 638.749 128.15C641.549 126.283 643.94 124.067 645.924 121.5C648.024 118.933 649.774 116.308 651.174 113.625C652.574 110.942 653.682 108.783 654.499 107.15V59.5501C654.499 56.4002 653.682 53.5418 652.049 50.9752C650.532 48.2918 648.782 46.9502 646.799 46.9502V45.3752H675.149V46.9502C673.165 46.9502 671.357 48.2918 669.724 50.9752C668.207 53.5418 667.449 56.4002 667.449 59.5501V111.175C667.449 113.275 667.857 115.083 668.674 116.6C669.607 118 670.774 119.108 672.174 119.925C673.574 120.742 675.149 121.208 676.899 121.325C678.649 121.442 680.457 121.15 682.324 120.45L682.499 120.275L683.024 121.85L654.499 132.525V110.825C653.449 112.808 652.165 115.083 650.649 117.65C649.132 120.1 647.324 122.433 645.224 124.65C643.124 126.867 640.732 128.733 638.049 130.25C635.365 131.767 632.39 132.525 629.124 132.525C620.84 132.525 614.249 128.5 609.349 120.45C607.249 116.95 605.557 112.633 604.274 107.5C603.107 102.367 602.524 96.4167 602.524 89.6501H602.349V59.5501ZM720.244 62.8751C721.527 60.4251 722.985 58.0918 724.619 55.8752C726.369 53.5418 728.294 51.5585 730.394 49.9252C732.61 48.1752 734.944 46.8335 737.394 45.9002C739.96 44.9668 742.702 44.5002 745.619 44.5002C749.235 44.6168 752.444 45.5502 755.244 47.3002C758.044 49.0502 760.494 51.3252 762.594 54.1252C764.81 56.8085 766.619 59.7835 768.019 63.0501C769.535 66.2001 770.76 69.2918 771.694 72.3251L771.869 73.0251L755.244 82.8251L754.369 81.4251C754.602 78.3918 754.777 75.1834 754.894 71.8001C755.127 68.4168 755.244 65.3835 755.244 62.7001C755.244 57.6835 754.602 53.7168 753.319 50.8002C752.035 47.7668 749.294 46.2502 745.094 46.2502C742.177 46.2502 739.435 46.8335 736.869 48.0002C734.419 49.1668 732.144 50.7418 730.044 52.7252C727.944 54.5918 726.077 56.7502 724.444 59.2002C722.81 61.6501 721.411 64.2168 720.244 66.9001V117.825C720.244 119.342 720.419 120.858 720.769 122.375C721.236 123.892 721.819 125.233 722.519 126.4C723.219 127.567 724.035 128.5 724.969 129.2C725.902 129.9 726.894 130.25 727.944 130.25V132H699.594V130.25C700.644 130.25 701.636 129.9 702.569 129.2C703.502 128.5 704.319 127.567 705.019 126.4C705.719 125.233 706.244 123.892 706.594 122.375C707.061 120.858 707.294 119.342 707.294 117.825V66.2001C707.294 64.1001 706.827 62.3501 705.894 60.9501C705.077 59.4335 703.969 58.2668 702.569 57.4502C701.169 56.6335 699.594 56.1668 697.844 56.0502C696.094 55.9335 694.286 56.2252 692.419 56.9252H692.244L691.719 55.5252L720.244 44.8502V62.8751ZM837.811 52.5502C841.077 54.8835 843.702 57.5085 845.686 60.4251C847.786 63.3418 849.186 66.3168 849.886 69.3501L850.061 69.8751L837.111 78.9751L831.861 83.1751C828.827 85.3918 825.386 88.0751 821.536 91.2251C817.686 94.2584 814.186 97.6417 811.036 101.375C809.403 103.125 808.003 105.108 806.836 107.325C805.786 109.425 804.969 111.583 804.386 113.8C803.803 116.017 803.569 118.175 803.686 120.275C803.919 122.258 804.561 124.067 805.611 125.7C807.478 127.683 809.519 129.2 811.736 130.25C814.069 131.3 816.577 131.767 819.261 131.65C827.077 131.417 833.669 128.733 839.036 123.6C844.402 118.467 848.019 111.933 849.886 104L850.761 99.9751L852.336 100.15C851.519 104.933 850.177 109.367 848.311 113.45C846.444 117.417 843.994 120.917 840.961 123.95C837.927 126.983 834.544 129.258 830.811 130.775C827.077 132.292 823.227 133.108 819.261 133.225C813.077 133.342 807.594 132.233 802.811 129.9C798.144 127.45 794.178 124.242 790.911 120.275C787.644 116.192 785.136 111.583 783.386 106.45C781.753 101.2 780.819 95.8334 780.586 90.3501C780.469 84.8668 781.111 79.5584 782.511 74.4251C783.911 69.1751 786.128 64.5085 789.161 60.4251C792.311 56.2252 796.219 52.9002 800.886 50.4502C805.669 47.8835 811.328 46.6002 817.861 46.6002C821.944 46.4835 825.619 47.0085 828.886 48.1752C832.152 49.2252 835.127 50.6835 837.811 52.5502ZM817.861 48.1752C813.194 48.1752 809.228 49.5168 805.961 52.2002C802.811 54.7668 800.244 58.1502 798.261 62.3501C796.278 66.5501 794.878 71.3335 794.061 76.7001C793.244 81.9501 793.011 87.3168 793.361 92.8001C793.828 98.2834 794.761 103.592 796.161 108.725C797.678 113.742 799.719 118.058 802.286 121.675C801.703 118.292 802.111 114.675 803.511 110.825C805.028 106.975 807.128 103.475 809.811 100.325C812.961 96.5917 816.461 93.1501 820.311 90.0001C824.277 86.8501 827.777 84.1084 830.811 81.7751L835.886 77.9251C836.936 76.8751 837.519 74.7168 837.636 71.4501C837.869 68.1835 837.402 64.8001 836.236 61.3001C835.069 57.8002 833.027 54.7085 830.111 52.0252C827.194 49.3418 823.111 48.0585 817.861 48.1752Z" fill="white"/>
<path d="M411.913 175.671V154.228H426.208V156.242H414.219V163.589H425.501V165.603H414.219V173.657H426.746V175.671H411.913ZM452.446 175.671L445.022 154.228H447.542L453.983 173.134L460.438 154.228H462.959L455.551 175.671H452.446ZM482.127 175.671V154.228H496.421V156.242H484.432V163.589H495.714V165.603H484.432V173.657H496.959V175.671H482.127ZM516.772 175.671V154.228H519.892L531.221 173.488H530.852V154.228H533.065V175.671H529.945L518.632 156.442H518.986V175.671H516.772ZM559.364 175.671V156.242H552.294V154.228H568.756V156.242H561.67V175.671H559.364ZM595.04 176.07C590.137 176.07 587.032 173.334 586.863 169H589.153C589.368 172.151 591.674 174.041 595.04 174.041C597.929 174.041 600.281 172.643 600.281 170.014C600.281 167.355 597.853 166.525 594.517 165.587C591.597 164.788 587.493 163.712 587.493 159.362C587.493 155.397 590.874 153.829 594.655 153.829C599.082 153.829 601.726 155.981 602.003 159.992H599.712C599.451 157.256 597.576 155.858 594.563 155.858C591.827 155.858 589.798 157.026 589.798 159.316C589.798 161.898 592.365 162.59 595.101 163.374C599.651 164.696 602.587 165.926 602.587 169.876C602.587 174.303 598.913 176.07 595.04 176.07ZM645.118 175.671V154.228H647.423V173.657H658.183V175.671H645.118ZM677.58 175.671V154.228H679.886V173.657H690.646V175.671H677.58ZM718.098 176.07C711.98 176.07 708.583 171.213 708.583 164.88C708.583 158.271 712.318 153.829 718.297 153.829C722.693 153.829 725.983 156.211 727.12 160.546H724.799C723.816 157.548 721.541 155.873 718.374 155.873C713.486 155.873 710.92 159.869 710.92 164.788C710.92 169.814 713.563 174.01 718.144 174.01C721.71 174.01 724.215 171.474 724.845 168.154H727.166C726.275 172.981 723.032 176.07 718.098 176.07Z" fill="white"/>
<mask id="path-3-inside-1_269_4722" fill="white">
<path fill-rule="evenodd" clip-rule="evenodd" d="M146.24 38.4051C136.892 49.2335 131.238 63.341 131.238 78.769C131.238 94.6936 137.262 109.211 147.154 120.168C133.404 143.459 108.047 159.083 79.0415 159.083C35.3881 159.083 0 123.695 0 80.0415C0 36.3881 35.3881 1 79.0415 1C107.416 1 132.298 15.9511 146.24 38.4051Z"/>
</mask>
<path d="M146.24 38.4051L150.66 42.2205L153.465 38.9716L151.201 35.3252L146.24 38.4051ZM147.154 120.168L152.182 123.137L154.364 119.441L151.488 116.256L147.154 120.168ZM141.821 34.5897C131.592 46.4381 125.4 61.8878 125.4 78.769L137.077 78.769C137.077 64.7942 142.192 52.0288 150.66 42.2205L141.821 34.5897ZM125.4 78.769C125.4 96.1945 131.997 112.093 142.821 124.081L151.488 116.256C142.526 106.33 137.077 93.1926 137.077 78.769L125.4 78.769ZM142.127 117.2C129.383 138.786 105.897 153.244 79.0415 153.244V164.922C110.197 164.922 137.425 148.133 152.182 123.137L142.127 117.2ZM79.0415 153.244C38.6127 153.244 5.83861 120.47 5.83861 80.0415H-5.83861C-5.83861 126.919 32.1635 164.922 79.0415 164.922V153.244ZM5.83861 80.0415C5.83861 39.6127 38.6127 6.83861 79.0415 6.83861V-4.83861C32.1635 -4.83861 -5.83861 33.1635 -5.83861 80.0415H5.83861ZM79.0415 6.83861C105.313 6.83861 128.359 20.6745 141.28 41.485L151.201 35.3252C136.238 11.2278 109.518 -4.83861 79.0415 -4.83861V6.83861Z" fill="white" mask="url(#path-3-inside-1_269_4722)"/>
<circle cx="61.7982" cy="61.7982" r="58.8789" transform="matrix(-1 0 0 1 249.966 16.9719)" stroke="white" stroke-width="5.83861"/>
<path d="M117.252 78.9902C116.445 78.9902 115.682 79.2594 114.964 79.798C114.245 80.3365 113.617 81.0546 113.079 81.9521C112.54 82.8497 112.091 83.8819 111.732 85.0487C111.463 86.2155 111.328 87.3824 111.328 88.5492V110.898C107.648 116.643 103.34 120.906 98.4036 123.689C95.3518 125.484 92.0757 126.74 88.5753 127.458C85.0748 128.176 81.2602 128.446 77.1314 128.266C70.0406 128.087 63.6231 126.651 57.8787 123.958C52.1343 121.176 47.2426 117.63 43.2036 113.322C39.1646 108.924 36.068 103.942 33.9138 98.3775C31.7597 92.8126 30.6826 87.0682 30.6826 81.1443C30.6826 75.2204 31.8046 69.3414 34.0485 63.5073C36.3821 57.6731 39.9724 52.2878 44.8192 47.3512C49.3968 42.7736 54.4231 39.318 59.8982 36.9844C65.4631 34.6507 71.2075 33.3941 77.1314 33.2146C81.7987 33.2146 86.2865 34.0224 90.5948 35.638C91.0436 35.8175 91.4475 35.997 91.8065 36.1766C92.1655 36.2663 92.5245 36.4009 92.8836 36.5805C94.2299 37.0292 95.8006 37.478 97.5957 37.9268C99.3909 38.2858 101.141 38.4653 102.846 38.4653C104.642 38.3756 106.257 38.0166 107.693 37.3883C109.219 36.6702 110.296 35.5034 110.925 33.8878H112.136V65.1229H110.925C110.925 60.5453 110.027 56.4614 108.232 52.8712C106.526 49.2809 104.238 46.1843 101.365 43.5814C98.224 40.6195 94.4992 38.3756 90.1909 36.8497C85.9723 35.3239 81.6192 34.5609 77.1314 34.5609C72.1948 34.7405 67.5724 36.0419 63.2641 38.4653C58.9558 40.8887 55.186 44.12 51.9548 48.159C48.5441 52.4673 45.8963 57.359 44.0114 62.8341C42.2163 68.3092 41.229 73.919 41.0494 79.6633C40.8699 85.4077 41.4982 91.0624 42.9343 96.6272C44.3704 102.192 46.5694 107.174 49.5314 111.572C52.5831 115.97 56.3977 119.605 60.9753 122.477C65.5528 125.259 70.9382 126.785 77.1314 127.055V127.728L77.266 127.055C81.305 127.144 84.985 126.875 88.306 126.247C91.7167 125.529 94.8582 124.317 97.7304 122.612C98.4484 122.253 99.0767 121.894 99.6153 121.535C100.154 121.086 100.737 120.637 101.365 120.188V88.5492C101.365 87.3824 101.186 86.2155 100.827 85.0487C100.558 83.8819 100.154 82.8497 99.6153 81.9521C99.0767 81.0546 98.4484 80.3365 97.7304 79.798C97.0123 79.2594 96.2494 78.9902 95.4416 78.9902V77.7785L117.252 77.7785V78.9902Z" fill="white"/>
<path d="M173.513 44.922C170.246 47.2553 167.621 49.8803 165.638 52.7969C163.538 55.7136 162.138 58.6886 161.438 61.7219L161.263 62.2469L174.213 71.3469L179.463 75.5469C182.496 77.7635 185.938 80.4469 189.788 83.5969C193.638 86.6302 197.138 90.0135 200.288 93.7468C201.921 95.4968 203.321 97.4802 204.488 99.6968C205.538 101.797 206.354 103.955 206.938 106.172C207.521 108.388 207.754 110.547 207.638 112.647C207.404 114.63 206.763 116.438 205.713 118.072C203.846 120.055 201.804 121.572 199.588 122.622C197.254 123.672 194.746 124.138 192.063 124.022C184.246 123.788 177.654 121.105 172.288 115.972C166.921 110.838 163.304 104.305 161.438 96.3718L160.563 92.3468L158.988 92.5218C159.804 97.3052 161.146 101.738 163.013 105.822C164.879 109.788 167.329 113.288 170.363 116.322C173.396 119.355 176.779 121.63 180.513 123.147C184.246 124.663 188.096 125.48 192.063 125.597C198.246 125.713 203.729 124.605 208.513 122.272C213.179 119.822 217.146 116.613 220.413 112.647C223.679 108.563 226.188 103.955 227.938 98.8218C229.571 93.5718 230.504 88.2052 230.738 82.7219C230.854 77.2385 230.213 71.9302 228.813 66.7969C227.413 61.5469 225.196 56.8803 222.163 52.7969C219.013 48.5969 215.104 45.272 210.438 42.822C205.654 40.2553 199.996 38.972 193.463 38.972C189.379 38.8553 185.704 39.3803 182.438 40.547C179.171 41.597 176.196 43.0553 173.513 44.922ZM193.463 40.547C198.129 40.547 202.096 41.8886 205.363 44.572C208.513 47.1386 211.079 50.5219 213.063 54.7219C215.046 58.9219 216.446 63.7052 217.263 69.0719C218.079 74.3219 218.313 79.6885 217.963 85.1719C217.496 90.6552 216.563 95.9635 215.163 101.097C213.646 106.113 211.604 110.43 209.038 114.047C209.621 110.663 209.213 107.047 207.813 103.197C206.296 99.3468 204.196 95.8468 201.513 92.6968C198.363 88.9635 194.863 85.5219 191.013 82.3719C187.046 79.2219 183.546 76.4802 180.513 74.1469L175.438 70.2969C174.388 69.2469 173.804 67.0886 173.688 63.8219C173.454 60.5553 173.921 57.1719 175.088 53.6719C176.254 50.1719 178.296 47.0803 181.213 44.397C184.129 41.7136 188.213 40.4303 193.463 40.547Z" fill="white"/>
</svg>
