<svg width="167" height="106" viewBox="0 0 167 106" fill="none" xmlns="http://www.w3.org/2000/svg">
<mask id="path-1-inside-1_269_4847" fill="white">
<path fill-rule="evenodd" clip-rule="evenodd" d="M97.2864 25.4948C91.071 32.6931 87.3121 42.0717 87.3121 52.3284C87.3121 62.9151 91.3169 72.5666 97.8942 79.8503C88.7534 95.331 71.899 105.715 52.6192 105.715C23.6016 105.715 0.078125 82.192 0.078125 53.1744C0.078125 24.1567 23.6016 0.633301 52.6192 0.633301C71.4793 0.633301 88.0184 10.5705 97.2864 25.4948Z"/>
</mask>
<path d="M97.2864 25.4948L99.0578 27.0243L100.182 25.7219L99.2746 24.2602L97.2864 25.4948ZM97.8942 79.8503L99.9095 81.0402L100.784 79.5587L99.6312 78.2818L97.8942 79.8503ZM95.515 23.9653C88.9466 31.5725 84.9717 41.4892 84.9717 52.3284H89.6524C89.6524 42.6543 93.1954 33.8137 99.0578 27.0243L95.515 23.9653ZM84.9717 52.3284C84.9717 63.5169 89.2067 73.7217 96.1573 81.4187L99.6312 78.2818C93.4271 71.4114 89.6524 62.3134 89.6524 52.3284H84.9717ZM95.879 78.6603C87.1417 93.4576 71.0373 103.375 52.6192 103.375V108.056C72.7606 108.056 90.3651 97.2044 99.9095 81.0402L95.879 78.6603ZM52.6192 103.375C24.8941 103.375 2.41844 80.8995 2.41844 53.1744H-2.26219C-2.26219 83.4845 22.309 108.056 52.6192 108.056V103.375ZM2.41844 53.1744C2.41844 25.4493 24.8941 2.97362 52.6192 2.97362V-1.70702C22.309 -1.70702 -2.26219 22.8642 -2.26219 53.1744H2.41844ZM52.6192 2.97362C70.6366 2.97362 86.4393 12.4639 95.2982 26.7294L99.2746 24.2602C89.5976 8.67722 72.322 -1.70702 52.6192 -1.70702V2.97362Z" fill="white" mask="url(#path-1-inside-1_269_4847)"/>
<circle cx="41.0789" cy="41.0789" r="39.9088" transform="matrix(-1 0 0 1 166.241 11.2496)" stroke="white" stroke-width="2.34032"/>
<path d="M78.0169 52.4771C77.48 52.4771 76.9728 52.6561 76.4955 53.0141C76.0182 53.3721 75.6006 53.8494 75.2426 54.446C74.8846 55.0426 74.5863 55.7288 74.3476 56.5044C74.1686 57.28 74.0792 58.0556 74.0792 58.8313V73.6874C71.633 77.5059 68.7691 80.3399 65.4876 82.1894C63.4591 83.3827 61.2814 84.218 58.9545 84.6953C56.6276 85.1726 54.0919 85.3516 51.3474 85.2323C46.634 85.1129 42.3681 84.1583 38.5497 82.3684C34.7312 80.5189 31.4796 78.1622 28.7947 75.2983C26.1099 72.3748 24.0515 69.0635 22.6196 65.3644C21.1876 61.6653 20.4717 57.8468 20.4717 53.909C20.4717 49.9713 21.2175 46.0633 22.7091 42.1852C24.2603 38.3071 26.6468 34.7273 29.8686 31.4458C32.9115 28.403 36.2526 26.1059 39.8921 24.5547C43.5912 23.0034 47.4097 22.1682 51.3474 22.0488C54.4499 22.0488 57.4331 22.5858 60.2969 23.6597C60.5952 23.7791 60.8637 23.8984 61.1024 24.0177C61.341 24.0774 61.5797 24.1669 61.8183 24.2862C62.7133 24.5845 63.7574 24.8828 64.9507 25.1812C66.1439 25.4198 67.3074 25.5391 68.441 25.5391C69.6342 25.4795 70.7082 25.2408 71.6628 24.8232C72.6771 24.3459 73.393 23.5702 73.8107 22.4963H74.6161V43.2591H73.8107C73.8107 40.2163 73.214 37.5016 72.0208 35.1151C70.8872 32.7286 69.3657 30.6702 67.4565 28.9399C65.3683 26.9711 62.8923 25.4795 60.0284 24.4652C57.2243 23.4509 54.3306 22.9438 51.3474 22.9438C48.066 23.0631 44.9933 23.9282 42.1295 25.5391C39.2656 27.15 36.7598 29.2979 34.6119 31.9828C32.3447 34.8466 30.5846 38.0983 29.3317 41.7377C28.1384 45.3772 27.4821 49.1061 27.3628 52.9246C27.2435 56.743 27.6611 60.5018 28.6157 64.201C29.5703 67.9001 31.0321 71.2114 33.001 74.1349C35.0295 77.0584 37.5652 79.4748 40.608 81.384C43.6509 83.2335 47.2307 84.2478 51.3474 84.4268V84.8743L51.4369 84.4268C54.1218 84.4865 56.568 84.3075 58.7755 83.8898C61.0427 83.4125 63.1309 82.6071 65.0402 81.4735C65.5175 81.2348 65.9351 80.9962 66.2931 80.7575C66.6511 80.4592 67.0389 80.1609 67.4565 79.8626V58.8313C67.4565 58.0556 67.3372 57.28 67.0985 56.5044C66.9196 55.7288 66.6511 55.0426 66.2931 54.446C65.9351 53.8494 65.5175 53.3721 65.0402 53.0141C64.5629 52.6561 64.0557 52.4771 63.5187 52.4771V51.6717L78.0169 51.6717V52.4771Z" fill="white"/>
<path d="M115.42 29.8311C113.248 31.3821 111.504 33.127 110.185 35.0658C108.789 37.0046 107.859 38.9821 107.393 40.9985L107.277 41.3474L115.885 47.3964L119.375 50.1883C121.391 51.6618 123.679 53.4454 126.238 55.5393C128.797 57.5557 131.124 59.8047 133.218 62.2863C134.304 63.4496 135.234 64.7679 136.01 66.2414C136.708 67.6373 137.251 69.072 137.638 70.5455C138.026 72.019 138.181 73.4537 138.104 74.8496C137.949 76.168 137.522 77.37 136.824 78.4558C135.583 79.7741 134.226 80.7823 132.753 81.4803C131.202 82.1782 129.534 82.4884 127.751 82.4109C122.555 82.2558 118.173 80.4721 114.606 77.0598C111.038 73.6476 108.634 69.3047 107.393 64.0312L106.812 61.3557L105.765 61.472C106.308 64.6516 107.199 67.5986 108.44 70.3129C109.681 72.9496 111.31 75.2761 113.326 77.2925C115.342 79.3088 117.591 80.8211 120.073 81.8292C122.555 82.8374 125.114 83.3803 127.751 83.4578C131.861 83.5354 135.506 82.7986 138.685 81.2476C141.787 79.619 144.424 77.4864 146.596 74.8496C148.767 72.1353 150.434 69.072 151.598 65.6598C152.683 62.17 153.304 58.6026 153.459 54.9577C153.536 51.3128 153.11 47.7842 152.179 44.3719C151.249 40.8821 149.775 37.7801 147.759 35.0658C145.665 32.2739 143.067 30.0637 139.965 28.4351C136.785 26.729 133.024 25.8759 128.681 25.8759C125.967 25.7984 123.524 26.1474 121.353 26.9229C119.181 27.6208 117.204 28.5902 115.42 29.8311ZM128.681 26.9229C131.783 26.9229 134.42 27.8147 136.591 29.5984C138.685 31.3045 140.391 33.5535 141.71 36.3454C143.028 39.1372 143.959 42.3168 144.502 45.8842C145.045 49.374 145.2 52.9414 144.967 56.5863C144.657 60.2312 144.036 63.7598 143.106 67.172C142.098 70.5067 140.74 73.3761 139.034 75.7802C139.422 73.5312 139.151 71.1272 138.22 68.568C137.212 66.0088 135.816 63.6822 134.032 61.5883C131.938 59.1067 129.612 56.8189 127.053 54.725C124.416 52.6312 122.089 50.8087 120.073 49.2577L116.699 46.6985C116.002 46.0005 115.614 44.5658 115.536 42.3944C115.381 40.2229 115.691 37.9739 116.467 35.6474C117.242 33.3209 118.599 31.2658 120.538 29.4821C122.477 27.6984 125.191 26.8453 128.681 26.9229Z" fill="white"/>
</svg>
