<svg width="53" height="53" viewBox="0 0 53 53" fill="none" xmlns="http://www.w3.org/2000/svg">
<g id="x-social-media-logo-icon (2) 4" clip-path="url(#clip0_780_571)">
<path id="Vector" d="M40.8784 0.964233H12.2296C5.71485 0.964233 0.433594 6.24549 0.433594 12.7602V41.1682C0.433594 47.683 5.71485 52.9642 12.2296 52.9642H40.8784C47.3931 52.9642 52.6744 47.683 52.6744 41.1682V12.7602C52.6744 6.24549 47.3931 0.964233 40.8784 0.964233Z" fill="black"/>
<g id="Group 34347">
<path id="Vector_2" d="M26.2892 38.6755C32.8369 38.6755 38.1449 33.3676 38.1449 26.8199C38.1449 20.2722 32.8369 14.9642 26.2892 14.9642C19.7415 14.9642 14.4336 20.2722 14.4336 26.8199C14.4336 33.3676 19.7415 38.6755 26.2892 38.6755Z" fill="#FFFA37"/>
<path id="Vector_3" fill-rule="evenodd" clip-rule="evenodd" d="M30.5455 20.2021C29.728 19.1718 28.3791 18.3514 26.2997 18.3514C24.5191 18.3689 20.9579 19.3544 20.9579 23.1561C20.9579 23.7113 21.0019 24.4549 21.0403 25.0025C20.995 24.9894 20.9394 24.9647 20.8512 24.9225L20.8389 24.9166C20.683 24.8417 20.4459 24.7278 20.1162 24.7278C19.7831 24.7278 19.461 24.8583 19.2219 25.0518C18.9842 25.2441 18.7812 25.5397 18.7812 25.8971C18.7812 26.3441 19.0328 26.6408 19.3269 26.8311C19.5882 27.0002 19.9177 27.1081 20.1785 27.1936L20.2043 27.202C20.4834 27.2936 20.688 27.3634 20.8291 27.4513C20.9389 27.5198 20.9556 27.563 20.9577 27.6042C20.9562 27.61 20.9529 27.6227 20.9456 27.6432C20.9305 27.6855 20.9055 27.7427 20.8689 27.8141C20.7959 27.9567 20.6894 28.1321 20.5627 28.3191C20.3072 28.6964 19.9954 29.0833 19.7625 29.3073C19.5327 29.5284 19.1557 29.803 18.7616 30.0216C18.5661 30.13 18.3749 30.2199 18.2039 30.2816C18.0274 30.3453 17.8981 30.3696 17.8181 30.3696C17.7548 30.3696 17.7001 30.3826 17.6762 30.3886C17.6426 30.397 17.6078 30.4081 17.5734 30.421C17.5052 30.4466 17.4239 30.485 17.3434 30.5392C17.1895 30.6428 16.9746 30.8516 16.9746 31.181C16.9746 31.3529 17.015 31.4985 17.0847 31.6248C17.1458 31.7353 17.2243 31.8192 17.2695 31.8675L17.2762 31.8746L17.2887 31.8881C17.5372 32.1554 17.9485 32.3415 18.3478 32.4691C18.691 32.5787 19.0746 32.6605 19.4484 32.7095C19.4537 32.7336 19.4592 32.7595 19.4652 32.788L19.4672 32.7972C19.4907 32.9082 19.5219 33.0552 19.5678 33.1907C19.6111 33.3186 19.6895 33.5077 19.8501 33.6424C20.0547 33.8139 20.3222 33.8313 20.4967 33.8306C20.6841 33.8298 20.9029 33.8034 21.1105 33.7784L21.1282 33.7763C21.4202 33.7411 21.7258 33.7048 22.0423 33.7048C22.6198 33.7048 22.9901 33.946 23.5709 34.3427L23.5748 34.3454C23.776 34.4828 24.0013 34.6366 24.2574 34.788C25.1145 35.2944 25.811 35.2901 26.2057 35.2876C26.2317 35.2874 26.2564 35.2873 26.2798 35.2873C26.3031 35.2873 26.328 35.2874 26.3542 35.2876C26.7496 35.2901 27.4646 35.2947 28.3221 34.788C28.5782 34.6366 28.8035 34.4828 29.0046 34.3454L29.0086 34.3427C29.5894 33.946 29.9597 33.7048 30.5372 33.7048C30.8537 33.7048 31.1593 33.7411 31.4514 33.7763L31.4691 33.7784C31.6766 33.8034 31.8954 33.8298 32.0828 33.8306C32.2573 33.8313 32.5248 33.8139 32.7294 33.6424C32.89 33.5077 32.9684 33.3186 33.0117 33.1907C33.0576 33.0552 33.0888 32.9082 33.1123 32.7972L33.1143 32.788C33.1203 32.7595 33.1258 32.7336 33.1311 32.7095C33.5049 32.6605 33.8885 32.5787 34.2317 32.4691C34.631 32.3415 35.0423 32.1553 35.2908 31.888L35.3033 31.8746L35.3099 31.8675C35.3552 31.8192 35.4337 31.7353 35.4947 31.6248C35.5645 31.4985 35.6049 31.3529 35.6049 31.181C35.6049 30.8516 35.39 30.6428 35.2361 30.5392C35.1556 30.485 35.0743 30.4466 35.0061 30.421C34.9717 30.4081 34.9369 30.397 34.9033 30.3886C34.8794 30.3826 34.8246 30.3696 34.7614 30.3696C34.6814 30.3696 34.5521 30.3453 34.3756 30.2816C34.2046 30.2199 34.0134 30.13 33.8179 30.0216C33.4238 29.803 33.0468 29.5284 32.817 29.3073C32.5841 29.0833 32.2723 28.6964 32.0168 28.3191C31.8901 28.1321 31.7837 27.9567 31.7107 27.8141C31.6741 27.7427 31.649 27.6855 31.6339 27.6432C31.6267 27.6227 31.6233 27.61 31.6218 27.6042C31.6239 27.563 31.6405 27.5198 31.7504 27.4513C31.8915 27.3634 32.0961 27.2936 32.3753 27.202L32.401 27.1936C32.6618 27.1081 32.9913 27.0002 33.2526 26.8311C33.5468 26.6408 33.7984 26.3441 33.7984 25.8971C33.7984 25.5397 33.5953 25.2441 33.3576 25.0518C33.1185 24.8583 32.7964 24.7278 32.4633 24.7278C32.1336 24.7278 31.8965 24.8417 31.7406 24.9166L31.7284 24.9225C31.6401 24.9647 31.5845 24.9894 31.5393 25.0025C31.5776 24.4549 31.6216 23.7113 31.6216 23.1561C31.6216 22.4024 31.3475 21.2129 30.5455 20.2021ZM22.7188 20.6994C22.0405 21.5486 21.8081 22.5569 21.8081 23.1561C21.8081 23.7117 21.8552 24.4835 21.8949 25.037C21.9081 25.2208 21.8704 25.4351 21.7098 25.6052C21.5473 25.7773 21.3263 25.8332 21.1288 25.8332C20.8437 25.8332 20.6268 25.7289 20.4881 25.6622L20.472 25.6545C20.3172 25.5802 20.2358 25.5457 20.1162 25.5457C20.0073 25.5457 19.8745 25.5925 19.7691 25.6777C19.6623 25.7641 19.6313 25.8487 19.6313 25.8971C19.6313 25.9956 19.6677 26.0661 19.8013 26.1525C19.9591 26.2545 20.1839 26.3312 20.4786 26.4279L20.5043 26.4363C20.749 26.5165 21.0522 26.6159 21.2914 26.765C21.5599 26.9323 21.8081 27.2014 21.8081 27.6158C21.8081 27.7244 21.778 27.829 21.7498 27.9082C21.7192 27.9942 21.6779 28.0849 21.6315 28.1755C21.5387 28.3569 21.4131 28.5617 21.2751 28.7655C21.0011 29.17 20.653 29.6073 20.3636 29.8856C20.0711 30.167 19.6311 30.4833 19.1862 30.7302C18.9621 30.8544 18.7281 30.9659 18.5025 31.0473C18.3006 31.1202 18.0829 31.1772 17.8741 31.1862C17.8689 31.1884 17.8632 31.191 17.8572 31.194C17.8475 31.1989 17.8385 31.2041 17.8307 31.2094L17.8267 31.2122C17.8275 31.2178 17.8284 31.2219 17.8291 31.2249C17.8308 31.2314 17.8328 31.2361 17.8354 31.2409C17.8436 31.2557 17.8565 31.2722 17.9087 31.3282L17.9225 31.3429C18.0165 31.4442 18.2484 31.5755 18.6159 31.693C18.9659 31.8048 19.3798 31.8856 19.7709 31.9227C19.9665 31.9412 20.0793 32.0635 20.127 32.1294C20.1761 32.1972 20.2042 32.2688 20.2206 32.3163C20.2524 32.4083 20.2764 32.5216 20.2953 32.6109L20.2982 32.6245C20.324 32.7462 20.3466 32.8504 20.3761 32.9374C20.3865 32.9682 20.3961 32.9916 20.4044 33.0088C20.4231 33.011 20.4517 33.013 20.4931 33.0128C20.6729 33.0121 20.853 32.9853 21.0311 32.9638C21.3161 32.9294 21.6688 32.8869 22.0423 32.8869C22.9084 32.8869 23.48 33.2775 24.0321 33.6547L24.0631 33.6759C24.2674 33.8154 24.4721 33.955 24.7024 34.0911C25.3512 34.4745 25.8449 34.4717 26.2057 34.4697C26.231 34.4696 26.2557 34.4695 26.2798 34.4695C26.3036 34.4695 26.3282 34.4696 26.3535 34.4697C26.7182 34.4717 27.2285 34.4745 27.8771 34.0911C28.1074 33.955 28.3122 33.8154 28.5164 33.6759L28.5474 33.6547C29.0995 33.2775 29.6711 32.8869 30.5372 32.8869C30.9107 32.8869 31.2634 32.9294 31.5484 32.9638L31.557 32.9648C31.7875 32.9926 31.9562 33.0122 32.0864 33.0128C32.1278 33.013 32.1564 33.011 32.1751 33.0088C32.1834 32.9916 32.1929 32.9682 32.2034 32.9374C32.2329 32.8504 32.2554 32.7462 32.2813 32.6245L32.2842 32.6109C32.3031 32.5215 32.3271 32.4083 32.3588 32.3163C32.3753 32.2688 32.4034 32.1972 32.4525 32.1294C32.5002 32.0635 32.613 31.9412 32.8087 31.9227C33.1997 31.8856 33.6136 31.8048 33.9636 31.693C34.3311 31.5755 34.563 31.4442 34.657 31.343L34.6708 31.3282C34.7229 31.2722 34.7359 31.2557 34.7441 31.2409C34.7467 31.2361 34.7488 31.2314 34.7504 31.2249C34.7511 31.2219 34.7521 31.2178 34.7528 31.2122L34.7488 31.2094C34.741 31.2041 34.732 31.1989 34.7223 31.194C34.7163 31.191 34.7106 31.1884 34.7054 31.1862C34.4966 31.1772 34.2789 31.1202 34.077 31.0473C33.8514 30.9659 33.6174 30.8544 33.3933 30.7302C32.9484 30.4833 32.5085 30.167 32.2159 29.8856C31.9265 29.6073 31.5784 29.17 31.3044 28.7655C31.1664 28.5617 31.0408 28.3569 30.948 28.1755C30.9016 28.0849 30.8603 27.9942 30.8297 27.9082C30.8015 27.829 30.7714 27.7244 30.7714 27.6158C30.7714 27.2014 31.0196 26.9323 31.2881 26.765C31.5273 26.6159 31.8305 26.5165 32.0752 26.4363L32.1009 26.4279C32.3956 26.3312 32.6204 26.2545 32.7783 26.1525C32.9118 26.0661 32.9481 25.9956 32.9481 25.8971C32.9481 25.8487 32.9172 25.7641 32.8104 25.6777C32.705 25.5925 32.5721 25.5457 32.4633 25.5457C32.3437 25.5457 32.2623 25.5802 32.1075 25.6545L32.0914 25.6622C31.9527 25.7289 31.7358 25.8332 31.4507 25.8332C31.2532 25.8332 31.0322 25.7773 30.8697 25.6052C30.7091 25.4351 30.6714 25.2208 30.6846 25.037C30.7244 24.4835 30.7714 23.7117 30.7714 23.1561C30.7714 22.5553 30.5431 21.5469 29.8697 20.6984C29.212 19.8694 28.1124 19.1692 26.2997 19.1692C24.4869 19.1692 23.3817 19.8696 22.7188 20.6994Z" fill="black"/>
<path id="Vector_4" fill-rule="evenodd" clip-rule="evenodd" d="M22.7183 20.6998C22.04 21.549 21.8076 22.5573 21.8076 23.1565C21.8076 23.7121 21.8547 24.484 21.8944 25.0375C21.9075 25.2212 21.8698 25.4355 21.7094 25.6056C21.5468 25.7778 21.3258 25.8337 21.1283 25.8337C20.8432 25.8337 20.6263 25.7293 20.4876 25.6626L20.4715 25.6548C20.3167 25.5806 20.2353 25.5461 20.1157 25.5461C20.0069 25.5461 19.874 25.5929 19.7686 25.6781C19.6618 25.7646 19.6308 25.8492 19.6308 25.8975C19.6308 25.9961 19.6672 26.0664 19.8008 26.1529C19.9586 26.255 20.1834 26.3317 20.4781 26.4283L20.5038 26.4368C20.7485 26.517 21.0517 26.6162 21.2909 26.7653C21.5595 26.9328 21.8076 27.2018 21.8076 27.6162C21.8076 27.7249 21.7775 27.8295 21.7493 27.9086C21.7188 27.9946 21.6773 28.0854 21.631 28.1759C21.5382 28.3573 21.4126 28.5621 21.2745 28.766C21.0006 29.1703 20.6525 29.6076 20.3631 29.8861C20.0706 30.1675 19.6307 30.4838 19.1857 30.7305C18.9616 30.8549 18.7276 30.9663 18.502 31.0477C18.3001 31.1206 18.0824 31.1777 17.8736 31.1866C17.8684 31.1888 17.8627 31.1914 17.8567 31.1944C17.847 31.1993 17.838 31.2045 17.8302 31.2098L17.8262 31.2126C17.827 31.2182 17.8279 31.2224 17.8286 31.2253C17.8303 31.2319 17.8323 31.2365 17.8349 31.2413C17.8431 31.2562 17.856 31.2727 17.9083 31.3287L17.922 31.3433C18.016 31.4445 18.2479 31.5758 18.6154 31.6934C18.9654 31.8053 19.3793 31.886 19.7704 31.9231C19.966 31.9417 20.0788 32.064 20.1265 32.1298C20.1756 32.1976 20.2037 32.2692 20.2201 32.3167C20.2519 32.4087 20.2759 32.5219 20.2948 32.6113L20.2977 32.6249C20.3235 32.7467 20.3461 32.8508 20.3756 32.9378C20.386 32.9685 20.3957 32.992 20.4039 33.0092C20.4226 33.0113 20.4512 33.0133 20.4926 33.0132C20.6724 33.0125 20.8525 32.9857 21.0306 32.9642C21.3157 32.9298 21.6684 32.8873 22.0418 32.8873C22.908 32.8873 23.4795 33.2779 24.0315 33.6551L24.0625 33.6762C24.2669 33.8158 24.4716 33.9554 24.7019 34.0915C25.3507 34.475 25.8444 34.4722 26.2051 34.4701C26.2305 34.47 26.2552 34.4699 26.2793 34.4699C26.3032 34.4699 26.3277 34.47 26.353 34.4701C26.7177 34.4721 27.2279 34.4749 27.8767 34.0915C28.1069 33.9554 28.3117 33.8158 28.5159 33.6762L28.5469 33.6551C29.0991 33.2779 29.6706 32.8873 30.5367 32.8873C30.9102 32.8873 31.2629 32.9298 31.5479 32.9642L31.5565 32.9652C31.787 32.993 31.9557 33.0127 32.0859 33.0132C32.1273 33.0133 32.1559 33.0113 32.1746 33.0092C32.1829 32.992 32.1924 32.9685 32.2029 32.9378C32.2323 32.8508 32.2549 32.7467 32.2808 32.6249L32.2836 32.6113C32.3026 32.5219 32.3266 32.4087 32.3583 32.3167C32.3748 32.2691 32.4029 32.1976 32.452 32.1298C32.4998 32.0639 32.6125 31.9417 32.8082 31.9231C33.1992 31.886 33.6131 31.8053 33.9631 31.6934C34.3306 31.5758 34.5625 31.4446 34.6566 31.3433L34.6703 31.3287C34.7224 31.2727 34.7354 31.2562 34.7436 31.2413C34.7462 31.2365 34.7483 31.2319 34.7499 31.2253C34.7506 31.2224 34.7516 31.2182 34.7523 31.2126L34.7484 31.2098C34.7405 31.2045 34.7315 31.1993 34.7218 31.1944C34.7158 31.1914 34.7101 31.1888 34.7048 31.1866C34.4961 31.1777 34.2784 31.1206 34.0765 31.0477C33.8509 30.9663 33.6169 30.8549 33.3928 30.7305C32.9478 30.4838 32.5079 30.1675 32.2154 29.8861C31.926 29.6076 31.5779 29.1703 31.3039 28.766C31.1659 28.5621 31.0403 28.3573 30.9474 28.1759C30.9011 28.0854 30.8598 27.9946 30.8291 27.9086C30.801 27.8295 30.771 27.7249 30.771 27.6162C30.771 27.2018 31.0191 26.9328 31.2876 26.7653C31.5268 26.6162 31.83 26.517 32.0747 26.4368L32.1004 26.4283C32.3951 26.3317 32.6199 26.255 32.7777 26.1529C32.9113 26.0664 32.9476 25.9961 32.9476 25.8975C32.9476 25.8492 32.9167 25.7646 32.8099 25.6781C32.7045 25.5929 32.5717 25.5461 32.4628 25.5461C32.3432 25.5461 32.2618 25.5806 32.107 25.6548L32.0909 25.6626C31.9522 25.7293 31.7353 25.8337 31.4502 25.8337C31.2527 25.8337 31.0317 25.7778 30.8692 25.6056C30.7086 25.4355 30.6709 25.2212 30.6842 25.0375C30.7239 24.484 30.771 23.7121 30.771 23.1565C30.771 22.5557 30.5426 21.5473 29.8692 20.6988C29.2115 19.8699 28.1119 19.1696 26.2992 19.1696C24.4863 19.1696 23.3812 19.8701 22.7183 20.6998Z" fill="white"/>
</g>
</g>
<defs>
<clipPath id="clip0_780_571">
<rect width="52.2408" height="52" fill="white" transform="translate(0.433594 0.964233)"/>
</clipPath>
</defs>
</svg>
