<svg width="53" height="53" viewBox="0 0 53 53" fill="none" xmlns="http://www.w3.org/2000/svg">
<g id="x-social-media-logo-icon (2) 1" clip-path="url(#clip0_174_3750)">
<path id="Vector" d="M40.6381 0.964233H11.9894C5.47461 0.964233 0.193359 6.24549 0.193359 12.7602V41.1682C0.193359 47.683 5.47461 52.9642 11.9894 52.9642H40.6381C47.1529 52.9642 52.4342 47.683 52.4342 41.1682V12.7602C52.4342 6.24549 47.1529 0.964233 40.6381 0.964233Z" fill="black"/>
<g id="Group 34346">
<path id="Vector_2" d="M20.9701 24.8924C20.206 25.1753 19.4963 25.5781 18.8701 26.0843C18.1604 26.6722 17.5626 27.3739 17.1034 28.158C16.9298 28.4441 16.2732 29.5906 16.1932 31.4569C16.1479 32.5148 16.4792 33.607 16.6368 34.0618V34.0651C16.7363 34.3245 17.1248 35.2416 17.761 36.0197C17.9457 36.2452 18.1439 36.4604 18.3543 36.6642C17.68 36.2171 17.0785 35.6768 16.5697 35.0605C15.939 34.2916 15.55 33.3839 15.4486 33.1159C15.4484 33.114 15.4484 33.1121 15.4486 33.1102V33.1069C15.2904 32.6525 14.9581 31.5599 15.0044 30.5006C15.0845 28.6343 15.741 27.4887 15.9146 27.2017C16.3736 26.4175 16.9715 25.7158 17.6814 25.128C18.3074 24.6215 19.0171 24.2187 19.7814 23.9361C20.2581 23.7466 20.7547 23.6068 21.2627 23.519C22.0281 23.391 22.8099 23.3798 23.579 23.4861V24.3681C22.6825 24.3821 21.797 24.5601 20.9701 24.8924Z" fill="#69C9D0"/>
<g id="Group 34345">
<path id="Vector_3" d="M19.0802 30.3934C19.2235 29.2073 19.7099 28.5433 20.6266 27.8625C21.9383 26.9406 23.5767 27.462 23.5767 27.462V24.3682C23.975 24.3579 24.3735 24.3816 24.7674 24.4387V28.4203C24.7674 28.4203 23.1295 27.8988 21.8179 28.8212C20.9017 29.5015 20.4142 30.1661 20.2715 31.3522C20.267 31.9962 20.3879 32.8381 20.9445 33.566C20.8068 33.4954 20.6666 33.415 20.5237 33.3248C19.2976 32.5015 19.0742 31.2664 19.0802 30.3934ZM31.5326 18.6474C30.6303 17.6587 30.289 16.6605 30.1657 15.9592H31.3008C31.3008 15.9592 31.0744 17.7979 32.7238 19.6061L32.7467 19.6304C32.3021 19.3508 31.8945 19.0208 31.5326 18.6474ZM37.0004 21.4506V25.352C37.0004 25.352 35.552 25.2954 34.4802 25.0227C32.9834 24.6412 32.0215 24.0563 32.0215 24.0563C32.0215 24.0563 31.357 23.6392 31.3032 23.6102V31.6668C31.3032 32.1154 31.1804 33.2357 30.8059 34.17C30.3169 35.3924 29.5624 36.1947 29.4236 36.3587C29.4236 36.3587 28.5059 37.4432 26.8869 38.1736C25.4275 38.8324 24.1462 38.8157 23.7632 38.8324C23.7632 38.8324 21.5483 38.9202 19.5552 37.6249C19.1242 37.3393 18.7219 37.016 18.3535 36.659L18.3635 36.6661C20.357 37.9614 22.5714 37.8737 22.5714 37.8737C22.955 37.857 24.2362 37.8737 25.6951 37.2149C27.3127 36.4845 28.2318 35.4 28.2318 35.4C28.3691 35.236 29.1271 34.4337 29.6141 33.2109C29.9876 32.277 30.1115 31.1562 30.1115 30.7076V22.652C30.1652 22.6815 30.8292 23.0986 30.8292 23.0986C30.8292 23.0986 31.7917 23.6841 33.2884 24.0649C34.3607 24.3376 35.8087 24.3944 35.8087 24.3944V21.3371C36.3041 21.4482 36.7264 21.4782 37.0004 21.4506Z" fill="#EE1D52"/>
<path id="Vector_4" d="M35.81 21.3371V24.3934C35.81 24.3934 34.3621 24.3366 33.2897 24.064C31.7931 23.6826 30.8306 23.0977 30.8306 23.0977C30.8306 23.0977 30.1665 22.6806 30.1128 22.651V30.7086C30.1128 31.1572 29.99 32.2779 29.6154 33.2118C29.1265 34.4347 28.3719 35.2369 28.2332 35.4009C28.2332 35.4009 27.315 36.4855 25.6964 37.2159C24.2375 37.8747 22.9563 37.858 22.5728 37.8747C22.5728 37.8747 20.3584 37.9624 18.3648 36.6671L18.3548 36.66C18.1444 36.4561 17.9462 36.241 17.7615 36.0155C17.1253 35.2398 16.7353 34.3226 16.6373 34.0608V34.0575C16.4797 33.6028 16.1484 32.5106 16.1937 31.4527C16.2737 29.5864 16.9303 28.4408 17.1039 28.1538C17.5636 27.3712 18.1616 26.671 18.8712 26.0844C19.4973 25.5781 20.207 25.1753 20.9711 24.8925C21.7973 24.5605 22.6818 24.3825 23.5775 24.3682V27.462C23.5775 27.462 21.9391 26.9425 20.6279 27.8625C19.7112 28.5433 19.2248 29.2073 19.0815 30.3934C19.0756 31.2664 19.2989 32.5015 20.524 33.3253C20.6669 33.4159 20.8071 33.4963 20.9448 33.5665C21.1588 33.8447 21.4193 34.0872 21.7158 34.284C22.9125 35.0415 23.9152 35.0944 25.1976 34.6024C26.0526 34.2735 26.6962 33.5322 26.9946 32.7108C27.1822 32.1979 27.1797 31.6815 27.1797 31.1476V15.9592H30.164C30.2874 16.6605 30.6286 17.6587 31.5309 18.6474C31.8928 19.0208 32.3005 19.3508 32.745 19.6304C32.8764 19.7663 33.5479 20.438 34.4098 20.8504C34.8555 21.0635 35.3254 21.2269 35.81 21.3371Z" fill="black"/>
<path id="Vector_5" d="M30.1646 15.9592H27.1802V31.1481C27.1802 31.682 27.1802 32.1969 26.9952 32.7112C26.6938 33.5322 26.0526 34.2734 25.198 34.6024C23.9153 35.0963 22.9126 35.0415 21.7163 34.284C21.4193 34.088 21.1581 33.8463 20.9434 33.5689C21.9625 34.0899 22.8747 34.0808 24.0048 33.6461C24.8589 33.3171 25.501 32.5758 25.8014 31.7545C25.9894 31.2415 25.9869 30.7252 25.9869 30.1917V15H30.1078C30.1078 15 30.0616 15.3776 30.1646 15.9592ZM35.808 20.4919V21.3371C35.3243 21.2267 34.8553 21.0633 34.4104 20.8504C33.5484 20.438 32.8769 19.7663 32.7456 19.6304C32.8979 19.7263 33.0561 19.8135 33.2191 19.8917C34.2671 20.3932 35.2992 20.5429 35.808 20.4919Z" fill="#69C9D0"/>
</g>
</g>
</g>
<defs>
<clipPath id="clip0_174_3750">
<rect width="52.2408" height="52" fill="white" transform="translate(0.193359 0.964233)"/>
</clipPath>
</defs>
</svg>
